<svg xmlns="http://www.w3.org/2000/svg" viewBox="0 0 512 512" width="512" height="512">
    <defs>
        <linearGradient id="bgGradient" x1="0%" y1="0%" x2="100%" y2="100%">
            <stop offset="0%" stop-color="#4f46e5" />
            <stop offset="50%" stop-color="#7c3aed" />
            <stop offset="100%" stop-color="#d946ef" />
        </linearGradient>

        <linearGradient id="highlightGradient" x1="0%" y1="0%" x2="0%" y2="100%">
            <stop offset="0%" stop-color="rgba(255,255,255,0.5)" />
            <stop offset="100%" stop-color="rgba(255,255,255,0.05)" />
        </linearGradient>

        <filter id="shadow" x="-20%" y="-20%" width="140%" height="140%">
            <feDropShadow dx="0" dy="1" stdDeviation="0.8" flood-color="#000000" flood-opacity="0.35"/>
        </filter>

        <pattern id="gridPattern" width="32" height="32" patternUnits="userSpaceOnUse">
            <path d="M 32 0 L 0 0 0 32" fill="none" stroke="rgba(255,255,255,0.14)" stroke-width="1" />
        </pattern>
    </defs>

    <rect width="512" height="512" rx="115" fill="url(#bgGradient)" />

    <rect width="512" height="512" rx="115" fill="url(#gridPattern)" />

    <rect width="508" height="508" x="2" y="2" rx="113" fill="none" stroke="url(#highlightGradient)" stroke-width="3" />

    <text x="256" y="435" font-family="system-ui, -apple-system, sans-serif" font-size="110" font-weight="900" fill="#ffffff" text-anchor="middle" letter-spacing="4" filter="url(#shadow)">MPI</text>

    <g transform="translate(136, 105) scale(10)" fill="none" stroke="#ffffff" stroke-width="1.5" stroke-linecap="round" stroke-linejoin="round" filter="url(#shadow)">
        <path d="M12 5a3 3 0 1 0-5.997.125 4 4 0 0 0-2.526 5.77 4 4 0 0 0 .556 6.588A4 4 0 1 0 12 18Z"/>
        <path d="M9 13a4.5 4.5 0 0 0 3-4"/>
        <path d="M6.003 5.125A3 3 0 0 0 6.401 6.5"/>
        <path d="M3.477 10.896a4 4 0 0 1 .585-.396"/>
        <path d="M6 18a4 4 0 0 1-1.967-.516"/>
        <path d="M12 13h4"/>
        <path d="M12 18h6a2 2 0 0 1 2 2v1"/>
        <path d="M12 8h8"/>
        <path d="M16 8V5a2 2 0 0 1 2-2"/>
        <circle cx="16" cy="13" r="0.5"/>
        <circle cx="18" cy="3" r="0.5"/>
        <circle cx="20" cy="21" r="0.5"/>
        <circle cx="20" cy="8" r="0.5"/>
    </g>

</svg>